<svg width="197" height="58" viewBox="0 0 197 58" fill="none" xmlns="http://www.w3.org/2000/svg">
<path d="M18.0291 0.677734L32.1006 9.76364L17.0032 18.4802L18.0291 0.677734Z" fill="black"/>
<path d="M63.4624 30.2477L78.5977 20.7119V38.7229L63.4624 48.2587L48.3271 38.7229L17.5918 57.2994L0.867188 46.7041V28.6931L17.5918 39.2884L48.3271 20.7119L63.4624 30.2477Z" fill="black"/>
<path d="M104.771 41.4885V20.5002H97.4414V16.1233H117.428V20.5002H110.08V41.4885H104.771ZM120.522 41.7874C119.268 41.7874 118.167 41.5471 117.218 41.0667C116.268 40.5745 115.524 39.9006 114.985 39.0452C114.458 38.178 114.194 37.1936 114.194 36.092V36.0569C114.194 34.9084 114.481 33.9299 115.055 33.1213C115.63 32.301 116.462 31.6565 117.551 31.1877C118.641 30.719 119.966 30.4319 121.524 30.3264L128.872 29.8694V33.0686L122.298 33.4905C121.313 33.5491 120.563 33.7834 120.048 34.1936C119.532 34.592 119.274 35.1252 119.274 35.7932V35.8284C119.274 36.5198 119.538 37.0647 120.065 37.4631C120.593 37.8499 121.301 38.0432 122.192 38.0432C122.954 38.0432 123.634 37.8967 124.231 37.6038C124.841 37.2991 125.315 36.8889 125.655 36.3733C126.007 35.8459 126.182 35.2542 126.182 34.5979V28.885C126.182 28.053 125.919 27.3967 125.391 26.9163C124.864 26.4241 124.096 26.178 123.089 26.178C122.128 26.178 121.366 26.3772 120.803 26.7756C120.241 27.1741 119.895 27.678 119.766 28.2874L119.731 28.4456H115.038L115.055 28.2346C115.149 27.0745 115.53 26.0432 116.198 25.1409C116.878 24.2385 117.815 23.5354 119.01 23.0315C120.218 22.5159 121.647 22.2581 123.3 22.2581C124.928 22.2581 126.341 22.5217 127.536 23.0491C128.731 23.5647 129.657 24.2971 130.313 25.2463C130.981 26.1956 131.315 27.303 131.315 28.5686V41.4885H126.182V38.676H126.077C125.725 39.3206 125.268 39.8772 124.706 40.3459C124.155 40.803 123.528 41.1604 122.825 41.4182C122.122 41.6643 121.354 41.7874 120.522 41.7874ZM132.634 41.4885L138.54 32.1018L132.669 22.6448H138.453L141.845 29.0081H141.951L145.29 22.6448H150.88L144.992 31.9612L150.828 41.4885H145.255L141.669 34.9495H141.564L138.031 41.4885H132.634ZM152.656 41.4885V16.1233H162.342C164.885 16.1233 167.053 16.6096 168.846 17.5823C170.651 18.5549 172.033 19.9788 172.994 21.8538C173.955 23.717 174.436 25.9905 174.436 28.6741V28.7092C174.436 31.3928 173.955 33.6897 172.994 35.5999C172.045 37.51 170.668 38.969 168.863 39.9768C167.059 40.9846 164.885 41.4885 162.342 41.4885H152.656ZM157.965 37.094H161.709C163.291 37.094 164.627 36.7776 165.717 36.1448C166.807 35.512 167.627 34.5745 168.178 33.3323C168.74 32.0901 169.022 30.5549 169.022 28.7268V28.6917C169.022 26.9221 168.735 25.428 168.16 24.2092C167.598 22.9905 166.772 22.0706 165.682 21.4495C164.592 20.8167 163.268 20.5002 161.709 20.5002H157.965V37.094ZM185.352 41.8752C183.442 41.8752 181.79 41.4827 180.395 40.6975C179.001 39.9124 177.923 38.7874 177.161 37.3225C176.399 35.8577 176.018 34.1057 176.018 32.0667V32.0315C176.018 30.0042 176.405 28.2639 177.179 26.8108C177.952 25.3459 179.036 24.2209 180.431 23.4358C181.825 22.6506 183.46 22.2581 185.335 22.2581C187.222 22.2581 188.862 22.6506 190.257 23.4358C191.663 24.2092 192.753 25.3284 193.526 26.7932C194.3 28.2463 194.686 29.9924 194.686 32.0315V32.0667C194.686 34.1174 194.3 35.8752 193.526 37.3401C192.765 38.8049 191.686 39.9299 190.292 40.7151C188.897 41.4885 187.251 41.8752 185.352 41.8752ZM185.37 37.8499C186.202 37.8499 186.923 37.6272 187.532 37.1819C188.153 36.7249 188.628 36.0686 188.956 35.2131C189.296 34.3459 189.466 33.2971 189.466 32.0667V32.0315C189.466 30.8127 189.296 29.7756 188.956 28.9202C188.616 28.0647 188.136 27.4143 187.515 26.969C186.893 26.512 186.167 26.2834 185.335 26.2834C184.515 26.2834 183.794 26.512 183.173 26.969C182.563 27.4143 182.089 28.0647 181.749 28.9202C181.409 29.7756 181.239 30.8127 181.239 32.0315V32.0667C181.239 33.2971 181.403 34.3459 181.731 35.2131C182.071 36.0686 182.552 36.7249 183.173 37.1819C183.794 37.6272 184.526 37.8499 185.37 37.8499Z" fill="black"/>
</svg>
